<?xml version="1.0" encoding="UTF-8" standalone="no"?>
<!-- Created with Inkscape (http://www.inkscape.org/) -->

<svg
        width="456"
        height="456"
        viewBox="0 0 120.65 120.65"
        version="1.1"
        id="svg5672"
        inkscape:version="1.2.1 (9c6d41e410, 2022-07-14)"
        sodipodi:docname="CardioMeter.svg"
        inkscape:export-filename="..\..\RiderProjects\CardioMeter\Resources\AppIcon\appiconfg.svg"
        inkscape:export-xdpi="96"
        inkscape:export-ydpi="96"
        xmlns:inkscape="http://www.inkscape.org/namespaces/inkscape"
        xmlns:sodipodi="http://sodipodi.sourceforge.net/DTD/sodipodi-0.dtd"
        xmlns="http://www.w3.org/2000/svg"
        xmlns:svg="http://www.w3.org/2000/svg">
    <sodipodi:namedview
            id="namedview5674"
            pagecolor="#505050"
            bordercolor="#ffffff"
            borderopacity="1"
            inkscape:showpageshadow="0"
            inkscape:pageopacity="0"
            inkscape:pagecheckerboard="1"
            inkscape:deskcolor="#505050"
            inkscape:document-units="mm"
            showgrid="false"
            inkscape:zoom="3.659624"
            inkscape:cx="59.568961"
            inkscape:cy="171.32908"
            inkscape:window-width="3840"
            inkscape:window-height="2054"
            inkscape:window-x="-11"
            inkscape:window-y="-11"
            inkscape:window-maximized="1"
            inkscape:current-layer="layer1" />
    <defs
            id="defs5669" />
    <g
            inkscape:label="Layer 1"
            inkscape:groupmode="layer"
            id="layer1">
        <text
                xml:space="preserve"
                style="font-size:19.7556px;fill:#ff0000;fill-opacity:1;stroke-width:0.0808121"
                x="58.758366"
                y="45.435104"
                id="text2977"><tspan
         id="tspan2975"
         style="font-style:normal;font-variant:normal;font-weight:normal;font-stretch:normal;font-size:19.7556px;font-family:'Open Sans';-inkscape-font-specification:'Open Sans';fill:#ff0000;fill-opacity:1;stroke-width:0.0808121"
         x="58.758366"
         y="45.435104"
         sodipodi:role="line">184</tspan></text>
        <path
                d="m 99.972356,46.431378 c 0.357774,0.461941 0.938764,0.461941 1.296534,0 l 4.57937,-5.912826 c 0.35776,-0.46194 0.35776,-1.21213 0,-1.674066 -0.35776,-0.461942 -0.93878,-0.461942 -1.29654,0 l -3.01666,3.898767 V 31.40541 c 0,-0.654109 -0.40927,-1.182567 -0.91586,-1.182567 -0.5066,0 -0.915902,0.528458 -0.915902,1.182567 v 11.337843 l -3.01665,-3.895072 c -0.357767,-0.46194 -0.938766,-0.46194 -1.296534,0 -0.357757,0.461938 -0.357757,1.212127 0,1.674068 l 4.579382,5.912821 z"
                id="path420"
                style="fill:#e1688c;fill-opacity:1;stroke-width:0.0325222" />
        <path
                d="m 27.359189,74.801223 15.479849,14.451856 c 0.642495,0.599657 1.490589,0.933757 2.372949,0.933757 0.882356,0 1.730454,-0.3341 2.372945,-0.933757 l 15.47985,-14.451856 c 2.604252,-2.424347 4.077706,-5.825289 4.077706,-9.380426 v -0.496865 c 0,-5.988055 -4.326138,-11.093751 -10.228523,-12.078904 -3.906371,-0.651064 -7.88127,0.625356 -10.673985,3.418071 l -1.027993,1.027993 -1.027992,-1.027993 C 41.391285,53.470384 37.416377,52.193964 33.51001,52.845028 27.607623,53.830181 23.281488,58.935877 23.281488,64.923932 v 0.496865 c 0,3.555137 1.473457,6.956079 4.077701,9.380426 z"
                id="path71"
                style="fill:#e1688c;fill-opacity:1;stroke-width:0.0856659"
                inkscape:label="path71" />
    </g>
</svg>
